<?xml version="1.0" standalone="no"?>
<!DOCTYPE svg PUBLIC "-//W3C//DTD SVG 20010904//EN"
 "http://www.w3.org/TR/2001/REC-SVG-20010904/DTD/svg10.dtd">
<svg version="1.0" xmlns="http://www.w3.org/2000/svg"
 width="1280.000000pt" height="784.000000pt" viewBox="0 0 1280.000000 784.000000"
 preserveAspectRatio="xMidYMid meet">
<g transform="translate(0.000000,784.000000) scale(0.100000,-0.100000)"
fill="#000000" stroke="none">
<path d="M12323 7818 c-44 -27 -407 -185 -683 -298 -410 -167 -1001 -384
-1445 -530 l-190 -62 -95 16 c-258 44 -544 47 -770 8 -63 -11 -167 -23 -230
-26 -379 -22 -776 -141 -1090 -326 l-54 -32 -120 35 c-405 118 -822 146 -1197
81 -46 -8 -136 -19 -199 -24 -400 -36 -538 -58 -771 -126 -374 -108 -741 -301
-1061 -556 -141 -112 -404 -379 -512 -518 -339 -437 -552 -902 -660 -1435 -50
-246 -59 -350 -62 -688 -1 -175 -4 -320 -6 -322 -3 -3 -828 -203 -1964 -475
l-370 -89 -95 14 c-308 45 -525 19 -634 -77 -51 -45 -75 -85 -99 -170 -18 -64
-20 -106 -6 -143 l10 -26 61 42 c180 122 351 103 530 -58 l37 -33 503 94
c2213 417 2112 399 2125 381 7 -9 18 -40 25 -68 40 -169 160 -476 264 -675
171 -324 362 -579 631 -842 167 -163 263 -241 449 -365 415 -277 854 -440
1330 -494 263 -30 313 -33 407 -28 512 30 958 146 1335 347 50 27 131 65 180
85 235 97 503 256 708 420 176 140 428 405 561 589 19 26 27 29 114 37 196 18
390 60 575 122 122 42 119 41 330 140 547 256 681 342 945 607 408 407 669
936 761 1540 37 244 36 633 -2 870 -86 538 -304 1014 -638 1398 -53 61 -61 76
-50 86 24 22 740 260 1239 412 260 79 260 79 301 157 24 46 58 194 59 254 0
57 -44 272 -74 360 -60 176 -172 332 -276 386 -61 32 -83 33 -127 5z m-3065
-1093 c29 -10 7 -25 -70 -49 -175 -53 -642 -186 -653 -186 -16 0 -88 137 -82
154 5 13 149 48 277 67 139 21 477 30 528 14z m-974 -144 c3 -5 10 -40 16 -77
11 -82 9 -85 -78 -104 -58 -12 -59 -12 -130 26 -40 20 -72 43 -72 51 0 7 1 13
3 13 1 0 52 22 112 50 111 50 139 57 149 41z m-1829 -181 c3 -5 -12 -98 -34
-207 -22 -109 -43 -220 -47 -246 -8 -57 -20 -67 -114 -92 -283 -75 -1276 -367
-1315 -387 -11 -6 -30 -19 -41 -30 l-22 -19 -103 92 c-57 50 -123 109 -147
130 -34 31 -41 42 -33 56 16 31 193 220 263 282 213 189 775 385 1213 424 92
8 374 6 380 -3z m361 -30 c188 -34 475 -118 490 -142 4 -6 -15 -32 -42 -59
l-49 -48 -243 -66 c-134 -37 -250 -64 -258 -61 -9 3 -14 20 -14 44 0 22 -7
105 -15 186 -9 81 -13 151 -10 156 8 13 15 13 141 -10z m3950 -392 c225 -235
422 -558 533 -872 23 -64 28 -91 20 -97 -6 -3 -46 -12 -88 -19 -405 -64 -905
-203 -1384 -386 -92 -35 -173 -64 -181 -64 -8 0 -27 40 -49 103 -20 56 -42
116 -48 133 -12 30 -9 37 48 130 149 242 308 549 414 793 32 73 62 138 67 143
12 12 550 216 573 217 9 1 52 -36 95 -81z m-1148 -336 c-16 -39 -230 -462
-234 -462 -2 0 -20 26 -40 58 -20 31 -63 99 -97 150 -40 62 -57 96 -50 103 5
5 93 43 194 84 170 68 236 87 227 67z m-5077 -342 c57 -88 108 -167 114 -175
6 -10 4 -29 -9 -62 -36 -94 -47 -150 -53 -256 l-6 -109 -51 -22 c-119 -53
-158 -184 -86 -287 40 -55 125 -74 197 -44 19 8 38 15 42 15 4 0 26 -29 49
-64 47 -72 150 -172 229 -223 30 -19 56 -40 58 -46 14 -38 63 -333 57 -339 -5
-5 -66 -2 -138 7 -283 32 -383 38 -734 41 l-365 3 -3 38 c-4 44 11 179 38 343
40 234 123 525 214 743 93 225 302 597 335 597 5 0 55 -72 112 -160z m4105
-192 c23 -72 150 -423 169 -470 5 -12 -6 -24 -39 -47 -24 -17 -50 -31 -56 -31
-6 0 -57 33 -113 73 -56 40 -144 101 -194 135 -51 35 -93 67 -93 73 0 6 40 59
88 118 48 58 110 134 137 169 26 34 54 62 61 62 7 0 24 -37 40 -82z m-1018
-288 c17 -11 32 -24 32 -29 0 -11 -195 -181 -208 -181 -15 0 -26 150 -13 163
10 10 136 65 151 66 3 1 20 -8 38 -19z m3769 -51 c50 -217 72 -529 55 -753
-18 -224 -48 -390 -104 -576 -45 -150 -121 -334 -138 -338 -9 -1 -74 41 -145
94 -315 234 -635 429 -1065 649 l-215 110 -24 138 c-19 107 -22 140 -12 146 7
5 67 20 134 36 492 111 928 265 1304 461 98 51 182 91 188 90 5 -2 15 -27 22
-57z m-3271 -220 c19 -11 34 -25 34 -30 0 -11 -127 -12 -134 -1 -9 15 24 52
46 52 11 0 36 -9 54 -21z m502 -832 c-5 -22 -212 -356 -223 -360 -5 -2 -39 -1
-75 4 -72 9 -373 37 -434 41 -22 2 -41 8 -43 15 -4 10 732 311 765 312 8 1 12
-5 10 -12z m477 -264 c23 -117 39 -217 35 -223 -4 -7 -44 -2 -116 14 -60 14
-140 30 -177 37 -41 7 -71 17 -74 26 -3 7 23 80 57 161 96 225 79 203 162 200
l72 -3 41 -212z m889 -5 c174 -105 393 -222 569 -302 150 -68 190 -84 392
-157 103 -37 161 -63 163 -73 2 -8 -24 -58 -56 -110 -188 -299 -448 -565 -742
-759 -157 -103 -451 -246 -483 -234 -8 3 -18 40 -26 102 -16 123 -52 317 -91
490 l-30 136 24 97 c57 228 85 433 92 682 6 209 7 220 25 220 6 0 79 -41 163
-92z m-5942 -103 c234 -35 249 -38 249 -50 1 -11 -406 -116 -436 -112 -18 2
-21 12 -26 87 -6 86 2 116 27 106 8 -3 91 -17 186 -31z m3513 -355 c166 -22
317 -38 476 -49 64 -5 122 -11 128 -15 7 -5 2 -26 -15 -64 -69 -152 -129 -297
-175 -421 -28 -75 -55 -140 -59 -145 -20 -21 -240 208 -377 392 -87 118 -193
290 -193 316 0 16 5 18 38 12 20 -3 100 -15 177 -26z m1651 -47 c15 -58 -69
-444 -141 -653 -75 -216 -213 -510 -239 -510 -35 0 -265 88 -391 150 -170 83
-329 185 -319 203 4 6 46 75 94 152 103 165 239 404 303 531 25 49 51 95 59
101 7 6 90 14 183 18 94 4 220 13 280 20 168 19 164 19 171 -12z m-3696 -43
c0 -5 -54 -50 -120 -100 -355 -268 -734 -613 -994 -905 -49 -55 -96 -100 -104
-100 -10 0 -41 48 -84 130 -88 169 -148 311 -215 514 -52 156 -54 165 -37 178
10 7 23 13 28 13 6 0 342 63 746 139 404 77 745 140 758 140 12 1 22 -3 22 -9z
m497 -157 c41 -20 77 -42 80 -49 2 -6 -3 -49 -12 -95 -122 -643 -172 -1393
-130 -1969 7 -107 10 -199 6 -203 -17 -18 -328 111 -504 208 -274 153 -518
345 -741 583 -105 113 -216 250 -216 266 0 7 57 55 128 108 333 252 604 491
1002 885 168 167 307 303 309 303 2 0 37 -17 78 -37z m702 -209 c256 -379 441
-622 686 -899 159 -180 446 -463 608 -600 64 -54 117 -105 117 -111 0 -23
-197 -169 -360 -268 -330 -200 -813 -366 -1064 -366 -146 0 -460 42 -483 64
-9 8 -6 39 13 129 117 575 176 1221 187 2067 l2 155 60 16 c33 10 69 16 79 16
13 -2 63 -67 155 -203z m2876 -625 c37 -72 65 -138 63 -147 -6 -31 -307 -84
-308 -54 -1 13 165 332 172 332 5 0 37 -59 73 -131z m-1682 -158 c142 -80 402
-175 592 -217 60 -13 120 -27 133 -29 12 -3 22 -10 22 -16 0 -34 -326 -409
-355 -409 -7 0 -37 39 -66 88 -60 101 -249 388 -337 513 -52 74 -64 99 -45 99
2 0 27 -13 56 -29z"/>
</g>
</svg>
